<svg  version="1.1"
     xmlns="http://www.w3.org/2000/svg" viewBox="0 0 306.64 88.68"><path d="M189.05 85.11a2.42 2.42 0 0 0 2.34 2.34h10.47a2.42 2.42 0 0 0 2.34-2.34V64.29l19.46 22.17a3.1 3.1 0 0 0 2.1 1h13.3a2 2 0 0 0 1.6-3.45l-21.92-23.54 18.35-18.72a2.1 2.1 0 0 0-1.6-3.57h-11.21a4.57 4.57 0 0 0-3.08 1.48l-17 17.24V3.57a2.42 2.42 0 0 0-2.34-2.34h-10.47a2.42 2.42 0 0 0-2.34 2.34v81.54M246.82 85.11a2.42 2.42 0 0 0 2.34 2.34h10.22a2.42 2.42 0 0 0 2.34-2.34V40.52a2.34 2.34 0 0 0-2.34-2.34h-10.22a2.34 2.34 0 0 0-2.34 2.34ZM276.62 72.79c0 10 3.63 14.65 13.11 14.65h3.91c2.36 0 3.75-.48 5-1.7s6.68-7.41 7.38-8.24c1-1.15 1-2.79-1.14-2.78h-9.75c-2 0-3.82-.49-3.82-3.94V51.11h10.84a2.34 2.34 0 0 0 2.34-2.34v-8.25a2.27 2.27 0 0 0-2.34-2.34h-10.87V24.39a2.32 2.32 0 0 0-2.22-2.34l-10.1.12a2.42 2.42 0 0 0-2.34 2.34v13.67h-4.19a2.24 2.24 0 0 0-2.21 2.34v8.25a2.31 2.31 0 0 0 2.21 2.34h4.19ZM49.35 5c-4.1-1.95-12-5-18.56-5C17 0 6.53 9.73 6.53 24.76v13.42H2.34A2.27 2.27 0 0 0 0 40.52v8.25a2.34 2.34 0 0 0 2.34 2.34h4.19v34a2.42 2.42 0 0 0 2.34 2.34h8.37c1.85 0 4.68 0 4.68-2.34v-34h20.57v34a2.34 2.34 0 0 0 2.34 2.34h10.22a2.42 2.42 0 0 0 2.34-2.34V40.52a2.34 2.34 0 0 0-2.34-2.34H21.92v-13.3c0-7.64 4.56-11 9-11a20.2 20.2 0 0 1 7.3 1.54 2.49 2.49 0 0 0 2.86-.15c2.16-2 8.13-8.2 8.53-8.74A1 1 0 0 0 49.35 5m69.25 80.11V61.46c0-12.81-6.28-24.46-21.92-24.46a24.22 24.22 0 0 0-17.36 7.27l-8.5-6a2.34 2.34 0 0 0-2.34 2.34v44.5a2.42 2.42 0 0 0 2.34 2.34h9.11c2.34 0 3.08-.62 3.08-2.34V58a12.36 12.36 0 0 1 11.58-7.76c5.91 0 9.23 4.07 9.23 10.47v24.4a2.34 2.34 0 0 0 2.34 2.34h10.1a2.42 2.42 0 0 0 2.34-2.34m43.48-17.74a10.73 10.73 0 0 1-10.35 8c-6.52 0-11.2-5.67-11.2-12.57s5.05-12.56 11.94-12.56a15.94 15.94 0 0 1 9.61 2.83Zm14.66 17.74V3.57a2.42 2.42 0 0 0-2.34-2.34h-10.47a2.42 2.42 0 0 0-2.34 2.34v35.6a29.47 29.47 0 0 0-11-2.22C136 37 126.24 48.4 126.24 62.81c0 14.17 10.22 25.87 23.65 25.87A21.61 21.61 0 0 0 166 81.29l8.38 6.16a2.42 2.42 0 0 0 2.34-2.34M255.48 11.24s1.17-7.68 1.28-8.69-.13-3.31-1.13-2.29-10.21 10.47-11.13 11.37c-1.08 1.08-1.16 1.56 0 1.7s5.35.75 5.35.75a.46.46 0 0 1 .39.52s-1.13 7.88-1.24 8.52.06 3.54 1.14 2.42l11.3-11.6c.73-.76-.14-1.43-1.22-1.57l-4.36-.61a.47.47 0 0 1-.39-.52" style="fill:#c55e98"></path></svg>